{"accessors":[{"bufferView":0,"byteOffset":0,"componentType":5126,"count":43186,"max":[1.5989999771118164,0.6725000143051147,0.4514999985694885],"min":[0.0010000000474974513,0.0010000000474974513,0.0010000000474974513],"type":"VEC3"},{"bufferView":1,"byteOffset":0,"componentType":5126,"count":43186,"normalized":false,"type":"VEC2"},{"bufferView":2,"byteOffset":0,"componentType":5125,"count":43186,"type":"SCALAR"},{"bufferView":4,"byteOffset":0,"componentType":5126,"count":12,"max":[1.0210000276565552,0.3580000102519989,0.4514999985694885],"min":[0.9020000100135803,0.23899999260902405,0.0010000000474974513],"type":"VEC3"},{"bufferView":5,"byteOffset":0,"componentType":5121,"count":12,"normalized":true,"type":"VEC4"},{"bufferView":6,"byteOffset":0,"componentType":5125,"count":36,"type":"SCALAR"},{"bufferView":7,"byteOffset":0,"componentType":5126,"count":128310,"max":[1.5816075801849365,0.6667366027832031,0.25630050897598267],"min":[0.008461343124508858,0.006571274250745773,0.006653521675616503],"type":"VEC3"},{"bufferView":8,"byteOffset":0,"componentType":5126,"count":128310,"normalized":false,"type":"VEC2"},{"bufferView":9,"byteOffset":0,"componentType":5125,"count":128310,"type":"SCALAR"},{"bufferView":11,"byteOffset":0,"componentType":5126,"count":1,"max":[0.0,0.0,0.0],"min":[0.0,0.0,0.0],"type":"VEC3"},{"bufferView":12,"byteOffset":0,"componentType":5125,"count":1,"type":"SCALAR"}],"asset":{"generator":"VTK","version":"2.0"},"bufferViews":[{"buffer":0,"byteLength":518232,"byteOffset":0},{"buffer":1,"byteLength":345488,"byteOffset":0},{"buffer":2,"byteLength":172744,"byteOffset":0},{"buffer":3,"byteLength":273,"byteOffset":0},{"buffer":4,"byteLength":144,"byteOffset":0},{"buffer":5,"byteLength":48,"byteOffset":0},{"buffer":6,"byteLength":144,"byteOffset":0},{"buffer":7,"byteLength":1539720,"byteOffset":0},{"buffer":8,"byteLength":1026480,"byteOffset":0},{"buffer":9,"byteLength":513240,"byteOffset":0},{"buffer":10,"byteLength":273,"byteOffset":0},{"buffer":11,"byteLength":12,"byteOffset":0},{"buffer":12,"byteLength":4,"byteOffset":0}],"buffers":[{"byteLength":518232,"uri":"buffer4552340.bin"},{"byteLength":345488,"uri":"buffer6686849.bin"},{"byteLength":172744,"uri":"buffer6686850.bin"},{"byteLength":273,"uri":"buffer6687344.bin"},{"byteLength":144,"uri":"buffer4840559.bin"},{"byteLength":48,"uri":"buffer6687850.bin"},{"byteLength":144,"uri":"buffer6687851.bin"},{"byteLength":1539720,"uri":"buffer6628308.bin"},{"byteLength":1026480,"uri":"buffer6688239.bin"},{"byteLength":513240,"uri":"buffer6688240.bin"},{"byteLength":273,"uri":"buffer6688734.bin"},{"byteLength":12,"uri":"buffer5823060.bin"},{"byteLength":4,"uri":"buffer6689059.bin"}],"cameras":[{"perspective":{"aspectRatio":2.0925925925925926,"yfov":0.5235987755982988,"zfar":4.655831540223898,"znear":2.517653178752862},"type":"perspective"}],"images":[{"bufferView":3,"mimeType":"image/png"},{"bufferView":10,"mimeType":"image/png"}],"materials":[{"pbrMetallicRoughness":{"baseColorFactor":[1.0,1.0,1.0,1.0],"baseColorTexture":{"index":0,"texCoord":0},"metallicFactor":0.0,"roughnessFactor":1.0}},{"pbrMetallicRoughness":{"baseColorFactor":[1.0,1.0,1.0,1.0],"metallicFactor":0.0,"roughnessFactor":1.0}},{"pbrMetallicRoughness":{"baseColorFactor":[1.0,1.0,1.0,1.0],"baseColorTexture":{"index":1,"texCoord":0},"metallicFactor":0.0,"roughnessFactor":1.0}},{"pbrMetallicRoughness":{"baseColorFactor":[1.0,1.0,1.0,1.0],"metallicFactor":0.0,"roughnessFactor":1.0}}],"meshes":[{"name":"mesh0","primitives":[{"attributes":{"POSITION":0,"TEXCOORD_0":1},"indices":2,"material":0,"mode":0}]},{"name":"mesh1","primitives":[{"attributes":{"COLOR_0":4,"POSITION":3},"indices":5,"material":1,"mode":4}]},{"name":"mesh2","primitives":[{"attributes":{"POSITION":6,"TEXCOORD_0":7},"indices":8,"material":2,"mode":0}]},{"name":"mesh3","primitives":[{"attributes":{"POSITION":9},"indices":10,"material":3,"mode":0}]}],"nodes":[{"mesh":0,"name":"mesh0"},{"mesh":1,"name":"mesh1"},{"mesh":2,"name":"mesh2"},{"mesh":3,"name":"mesh3"},{"camera":0,"matrix":[-0.9279623607665667,0.37154759011725164,-0.02895246584667361,-0.0,-0.3450810340016662,-0.8273218910198626,0.44323534224118344,-0.0,0.14073001447054898,0.4212966614125739,0.8959376016831406,-0.0,1.2869019980437364,1.794365085196627,3.3260423233208045,1.0],"name":"Camera Node"},{"children":[0,1,2,3,4],"name":"Renderer Node"}],"samplers":[{"magFilter":9728,"minFilter":9728,"wrapS":33071,"wrapT":33071},{"magFilter":9728,"minFilter":9728,"wrapS":33071,"wrapT":33071}],"scene":0,"scenes":[{"name":"Layer 0","nodes":[5]}],"textures":[{"sampler":0,"source":0},{"sampler":1,"source":1}]}